<?xml version="1.0" encoding="UTF-8" standalone="no"?>
<!-- Created with Inkscape (http://www.inkscape.org/) -->

<svg
   xmlns:dc="http://purl.org/dc/elements/1.1/"
   xmlns:cc="http://creativecommons.org/ns#"
   xmlns:rdf="http://www.w3.org/1999/02/22-rdf-syntax-ns#"
   xmlns:svg="http://www.w3.org/2000/svg"
   xmlns="http://www.w3.org/2000/svg"
   xmlns:sodipodi="http://sodipodi.sourceforge.net/DTD/sodipodi-0.dtd"
   xmlns:inkscape="http://www.inkscape.org/namespaces/inkscape"
   width="2000"
   height="744.09448"
   id="svg4899"
   version="1.1"
   inkscape:version="0.48.2 r9819"
   sodipodi:docname="wall.svg">
  <defs
     id="defs4901">
    <inkscape:path-effect
       effect="spiro"
       id="path-effect6263"
       is_visible="true" />
    <inkscape:path-effect
       effect="spiro"
       id="path-effect6259"
       is_visible="true" />
    <inkscape:path-effect
       effect="spiro"
       id="path-effect5868"
       is_visible="true" />
    <inkscape:path-effect
       effect="spiro"
       id="path-effect5802"
       is_visible="true" />
    <inkscape:path-effect
       effect="spiro"
       id="path-effect5711"
       is_visible="true" />
    <inkscape:path-effect
       effect="spiro"
       id="path-effect5699"
       is_visible="true" />
    <inkscape:path-effect
       effect="spiro"
       id="path-effect5691"
       is_visible="true" />
    <inkscape:path-effect
       effect="spiro"
       id="path-effect5687"
       is_visible="true" />
    <inkscape:path-effect
       effect="spiro"
       id="path-effect5683"
       is_visible="true" />
    <inkscape:path-effect
       effect="spiro"
       id="path-effect5679"
       is_visible="true" />
    <inkscape:path-effect
       effect="spiro"
       id="path-effect5675"
       is_visible="true" />
    <inkscape:path-effect
       effect="spiro"
       id="path-effect5671"
       is_visible="true" />
    <inkscape:path-effect
       effect="spiro"
       id="path-effect5667"
       is_visible="true" />
    <inkscape:path-effect
       effect="spiro"
       id="path-effect5663"
       is_visible="true" />
    <inkscape:path-effect
       effect="spiro"
       id="path-effect5659"
       is_visible="true" />
    <inkscape:path-effect
       effect="spiro"
       id="path-effect5655"
       is_visible="true" />
    <inkscape:path-effect
       effect="spiro"
       id="path-effect5651"
       is_visible="true" />
    <inkscape:path-effect
       effect="spiro"
       id="path-effect5647"
       is_visible="true" />
    <inkscape:path-effect
       effect="spiro"
       id="path-effect5643"
       is_visible="true" />
    <inkscape:path-effect
       effect="spiro"
       id="path-effect5639"
       is_visible="true" />
    <inkscape:path-effect
       effect="spiro"
       id="path-effect5635"
       is_visible="true" />
    <inkscape:path-effect
       effect="spiro"
       id="path-effect5531"
       is_visible="true" />
    <inkscape:path-effect
       effect="spiro"
       id="path-effect5527"
       is_visible="true" />
    <inkscape:path-effect
       effect="spiro"
       id="path-effect5523"
       is_visible="true" />
    <inkscape:path-effect
       effect="spiro"
       id="path-effect5519"
       is_visible="true" />
    <inkscape:path-effect
       effect="spiro"
       id="path-effect5492"
       is_visible="true" />
    <inkscape:path-effect
       effect="spiro"
       id="path-effect5488"
       is_visible="true" />
    <inkscape:path-effect
       effect="spiro"
       id="path-effect5484"
       is_visible="true" />
    <inkscape:path-effect
       effect="spiro"
       id="path-effect5480"
       is_visible="true" />
    <inkscape:path-effect
       effect="spiro"
       id="path-effect5476"
       is_visible="true" />
    <inkscape:path-effect
       effect="spiro"
       id="path-effect5472"
       is_visible="true" />
    <inkscape:path-effect
       effect="spiro"
       id="path-effect5468"
       is_visible="true" />
    <inkscape:path-effect
       effect="spiro"
       id="path-effect5460"
       is_visible="true" />
    <inkscape:path-effect
       effect="spiro"
       id="path-effect5452"
       is_visible="true" />
    <inkscape:path-effect
       effect="spiro"
       id="path-effect5440"
       is_visible="true" />
    <inkscape:path-effect
       effect="spiro"
       id="path-effect4926"
       is_visible="true" />
    <inkscape:path-effect
       effect="spiro"
       id="path-effect4922"
       is_visible="true" />
  </defs>
  <sodipodi:namedview
     inkscape:document-units="mm"
     pagecolor="#ffffff"
     bordercolor="#666666"
     borderopacity="1.0"
     inkscape:pageopacity="0.0"
     inkscape:pageshadow="2"
     inkscape:zoom="0.35355339"
     inkscape:cx="1051.223"
     inkscape:cy="150.18957"
     inkscape:current-layer="layer6"
     id="namedview4903"
     showgrid="false"
     inkscape:window-width="1244"
     inkscape:window-height="683"
     inkscape:window-x="162"
     inkscape:window-y="274"
     inkscape:window-maximized="0"
     units="px" />
  <metadata
     id="metadata4905">
    <rdf:RDF>
      <cc:Work
         rdf:about="">
        <dc:format>image/svg+xml</dc:format>
        <dc:type
           rdf:resource="http://purl.org/dc/dcmitype/StillImage" />
        <dc:title></dc:title>
      </cc:Work>
    </rdf:RDF>
  </metadata>
  <g
     inkscape:label="Layer 1"
     inkscape:groupmode="layer"
     id="layer1"
     style="display:none"
     transform="translate(0,2.421875e-6)">
    <path
       style="fill:none;stroke:#000000;stroke-width:2.00399995;stroke-linecap:butt;stroke-linejoin:miter;stroke-miterlimit:4;stroke-opacity:1;stroke-dasharray:none"
       d="m 86.374013,256.94505 -47.217794,0"
       id="path5529"
       inkscape:path-effect="#path-effect5531"
       inkscape:original-d="m 86.374013,256.94505 -47.217794,0"
       inkscape:connector-curvature="0"
       inkscape:export-filename="/Users/tlodge/block49.website/assets/img/top_line2.png"
       inkscape:export-xdpi="90"
       inkscape:export-ydpi="90" />
  </g>
  <g
     inkscape:groupmode="layer"
     id="layer6"
     inkscape:label="Layer#2"
     style="display:inline">
    <path
       inkscape:connector-curvature="0"
       id="path6035"
       d="m 2,263.9776 1997.5766,42.42641"
       style="fill:none;stroke:#000000;stroke-width:1px;stroke-linecap:butt;stroke-linejoin:miter;stroke-opacity:1"
       inkscape:export-filename="/Users/tlodge/block49.website/assets/img/top_line2.png"
       inkscape:export-xdpi="90"
       inkscape:export-ydpi="90"
       sodipodi:nodetypes="cc" />
    <path
       style="fill:none;stroke:#000000;stroke-width:1px;stroke-linecap:butt;stroke-linejoin:miter;stroke-opacity:1"
       d="m 0,234.9776 2000.4051,42.77996"
       id="path6009"
       inkscape:connector-curvature="0"
       sodipodi:nodetypes="cc"
       inkscape:export-filename="/Users/tlodge/block49.website/assets/img/top_line2.png"
       inkscape:export-xdpi="90"
       inkscape:export-ydpi="90" />
    <path
       style="fill:#f4f5f6;fill-opacity:1;stroke:#000000;stroke-width:1;stroke-linecap:butt;stroke-linejoin:miter;stroke-miterlimit:4;stroke-opacity:1;stroke-dasharray:none"
       d="m -1.3955394,182.6517 0.00803,-84.826117 C 13.217884,87.522909 31.517986,82.579917 49.324337,84.127943 c 17.197409,1.495086 34.093748,9.243159 45.174896,22.479257 6.255757,7.47232 10.550157,16.43964 16.922607,23.8127 4.167,4.82131 9.26446,8.94507 15.17167,11.33543 5.90721,2.39035 12.66651,2.94871 18.68951,0.86726 3.77951,-1.30614 7.16088,-3.59207 10.1456,-6.2533 2.98471,-2.66123 5.60251,-5.70259 8.20732,-8.73666 2.60482,-3.03407 5.21583,-6.08054 8.18934,-8.75429 2.97351,-2.67374 6.33899,-4.98012 10.10739,-6.31797 3.68589,-1.30856 7.67006,-1.65556 11.56931,-1.34892 3.89924,0.30665 7.72527,1.25209 11.44346,2.46586 7.43636,2.42754 14.51946,5.93854 22.11416,7.81283 14.67179,3.62084 30.04189,0.90184 45.12693,0 52.81743,-3.15762 105.21219,16.26289 157.94427,11.90635 24.56762,-2.02969 48.68147,-9.20415 73.33127,-8.92976 11.51213,0.12815 23.06425,1.91378 33.8452,5.95317 12.37773,4.63767 23.72028,12.21207 36.66564,14.88295 3.3633,0.69391 6.82575,1.0447 10.23802,0.65783 3.41227,-0.38686 6.78246,-1.54134 9.50501,-3.63442 2.81525,-2.16434 4.81505,-5.21654 6.46187,-8.36264 1.64682,-3.1461 2.99821,-6.44868 4.81986,-9.49689 5.0271,-8.41195 13.50222,-14.47218 22.8007,-17.56589 9.29848,-3.09371 19.37338,-3.37432 29.06429,-1.91862 19.38181,2.9114 37.02243,12.43884 55.31148,19.48451 42.59742,16.41022 89.30034,19.42074 134.86547,16.65402 45.56512,-2.76673 90.58682,-11.09512 135.89614,-16.65402 3.75428,-0.4606 7.60725,-0.89722 11.28173,0 4.33391,1.05824 8.05112,3.9057 10.99762,7.25547 2.9465,3.34976 5.2272,7.21864 7.6488,10.96542 2.4217,3.74679 5.0464,7.44334 8.5085,10.25701 1.731,1.40683 3.6642,2.58032 5.7582,3.34902 2.094,0.7687 4.3523,1.1257 6.573,0.91556 4.0476,-0.38302 7.7429,-2.62824 10.5915,-5.52909 2.8487,-2.90086 4.953,-6.4372 6.9484,-9.97955 1.9953,-3.54235 3.9271,-7.15345 6.504,-10.29822 2.5768,-3.14477 5.8873,-5.83531 9.8013,-6.93562 2.6426,-0.7429 5.4598,-0.73138 8.1609,-0.24192 2.701,0.48945 5.2982,1.44443 7.8043,2.56429 5.0124,2.23974 9.7613,5.1692 15.0596,6.60739 7.0911,1.92483 14.6854,1.02545 21.7409,-1.02605 7.0555,-2.0515 13.7281,-5.21367 20.5656,-7.90371 26.0492,-10.24835 54.5657,-13.58108 82.4763,-11.4389 27.9106,2.14217 55.2493,9.65053 81.1088,20.36866 17.0583,7.07028 33.8668,15.63722 52.1715,18.06955 9.1523,1.21616 18.6159,0.82881 27.3887,-2.04913 8.7727,-2.87794 16.8214,-8.3601 21.9754,-16.02042 1.1701,-1.73906 2.191,-3.58344 3.4998,-5.22067 1.3088,-1.63723 2.96,-3.08672 4.9615,-3.70909 1.599,-0.49722 3.3415,-0.43436 4.9553,0.0127 1.6138,0.44706 3.1069,1.26446 4.4648,2.24436 2.7158,1.95982 4.9071,4.55605 7.5025,6.67269 3.7983,3.09766 8.4165,5.11143 13.2063,6.15097 4.7898,1.03954 9.7529,1.12929 14.6293,0.63643 9.7529,-0.98572 19.1042,-4.25137 28.5731,-6.7874 11.9817,-3.20902 24.2803,-5.27087 36.6655,-5.95317 38.5952,-2.12622 77.1139,9.11728 115.6379,5.95317 19.0548,-1.56503 37.7296,-6.63728 56.8253,-7.57965 9.5479,-0.47119 19.2172,0.11035 28.4344,2.64513 9.2173,2.53478 17.988,7.09421 24.7371,13.86429 3.8639,3.87599 7.0463,8.4403 11.2818,11.90635 3.996,3.27004 8.825,5.45125 13.853,6.62622 5.028,1.17498 10.255,1.36556 15.3982,0.90785 10.2862,-0.91543 20.1484,-4.36747 29.9779,-7.53407 25.7584,-8.29819 52.1437,-14.8159 78.9801,-18.30401 32.9718,-4.28557 66.5392,-3.96268 99.4224,0.95637 l 1.3982,47.18093"
       id="path5709"
       inkscape:path-effect="#path-effect5711"
       inkscape:original-d="M -1.3955394,182.6517 C -573.97407,309.21742 77.165989,405.75734 -1.3875068,97.825583 26.575446,89.668273 25.370982,84.127943 49.324337,84.127943 c 8.781331,0 36.208433,17.747807 45.174896,22.479257 8.777717,4.63184 11.458547,18.04612 16.922607,23.8127 5.87824,6.2037 26.10085,4.01271 33.86118,12.20269 13.29859,14.03487 31.55765,-24.6883 36.64965,-30.06222 9.49954,-10.02549 37.20003,6.14117 45.12693,8.92977 12.46781,4.38602 33.35922,-6.20963 45.12693,0 17.81449,9.4004 138.09787,22.37895 157.94427,11.90635 12.60827,-6.65316 55.66583,-18.25151 73.33127,-8.92976 10.14974,5.35584 24.1898,0.85818 33.8452,5.95317 13.20193,6.96643 20.45197,19.16078 36.66564,14.88295 3.06056,-0.8075 16.5851,-1.31021 19.74303,-2.97659 5.42336,-2.86181 4.59915,-15.50868 11.28173,-17.85953 13.06357,-4.59562 99.4129,-4.09671 107.17647,0 23.24303,12.26494 259.37339,12.01873 270.76161,0 2.65913,-2.80636 7.52115,0 11.28173,0 33.54132,0 27.87172,20.48505 39.48612,32.74248 9.2271,9.73799 31.8053,-30.58971 33.8452,-32.74248 4.9569,-5.23136 25.1402,8.23971 31.0248,8.92976 18.3058,2.1466 25.6306,-5.01884 42.3065,-8.92976 11.9353,-2.79913 159.3001,7.42235 163.5851,8.92976 7.7708,2.73368 96.5947,2.60722 101.5356,0 3.2502,-1.71505 7.3596,-8.34846 8.4613,-8.92976 10.4499,-5.51426 10.5696,5.57743 16.9226,8.92976 12.8208,6.76533 41.0604,0 56.4087,0 7.3644,0 31.7976,-11.09063 36.6655,-5.95317 21.5121,22.70298 89.042,-8.08102 115.6379,5.95317 31.134,16.42886 88.483,-2.4227 109.9968,8.92977 3.9175,2.06719 4.9113,8.54475 11.2818,11.90635 13.2173,6.97457 43.2831,0 59.2291,0 21.7273,0 64.6588,-37.50123 78.9801,-18.30401 104.7376,128.28635 107.4054,-60.629967 99.4224,0.95637 -1.6243,-26.42717 5.5414,38.43563 1.3982,47.18093"
       inkscape:connector-curvature="0"
       sodipodi:nodetypes="ccssssssssssssssssscsssscsssssssccc"
       inkscape:export-filename="/Users/tlodge/block49.website/assets/img/top_line2.png"
       inkscape:export-xdpi="90"
       inkscape:export-ydpi="90" />
    <path
       style="fill:#f4f5f6;fill-opacity:1;stroke:#000000;stroke-width:1px;stroke-linecap:butt;stroke-linejoin:miter;stroke-opacity:1"
       d="M 6.6568501,545.60501 C 50.592008,525.67563 102.72109,524.62818 147.42136,542.77658 c 17.75459,7.2084 34.73018,17.38879 53.74011,19.79899 7.49695,0.95051 15.09855,0.65107 22.62742,0 26.11363,-2.25823 51.65528,-8.6987 77.42641,-13.48099 25.77113,-4.78228 52.30114,-7.90834 78.13708,-3.48957 8.56929,1.46562 16.97428,3.74796 25.45585,5.65685 21.43508,4.82424 44.28783,7.17701 65.05382,0 8.64852,-2.98905 16.77158,-7.58086 25.72018,-9.49238 4.47429,-0.95576 9.15238,-1.21469 13.61797,-0.21905 4.46559,0.99564 8.71151,3.31347 11.57354,6.88301 2.12888,2.65515 3.44019,5.90296 5.65685,8.48528 2.74673,3.19983 6.74809,5.16557 10.88987,5.95875 4.14178,0.79318 8.42952,0.48438 12.57115,-0.3096 8.28325,-1.58796 16.20642,-5.0942 24.62224,-5.64915 6.17402,-0.40712 12.32321,0.79633 18.47082,1.49716 6.14761,0.70083 12.57899,0.86267 18.29874,-1.49716 4.04645,-1.66947 7.50105,-4.51118 10.61651,-7.58605 3.11546,-3.07486 5.95938,-6.42266 9.18248,-9.38451 6.8198,-6.26702 15.24731,-10.68136 24.1549,-13.21909 8.90759,-2.53773 18.28788,-3.23325 27.52521,-2.55738 18.47468,1.35176 36.12638,8.07086 52.97169,15.77647 15.7862,7.22113 31.28404,15.42463 48.08326,19.79899 24.82067,6.46307 51.06515,4.19844 76.36753,0 18.75001,-3.1112 37.6312,-7.2758 56.56851,-5.65686 18.49991,1.58155 36.02056,8.59576 53.7402,14.14214 98.217,30.74267 204.4284,16.72351 305.4701,-2.82843 21.1635,-4.09521 42.3734,-8.43254 63.8994,-9.56886 21.5261,-1.13631 43.5762,1.05541 63.3798,9.56886 11.6253,4.99763 22.2725,12.07481 33.9411,16.97056 24.9778,10.47984 54.1096,10.21718 79.196,0 9.4195,-3.83637 18.3733,-9.02932 28.2842,-11.31371 11.5526,-2.66279 23.6187,-1.19622 35.3428,0.56389 11.7241,1.76011 23.6131,3.80667 35.3679,2.26454 13.6298,-1.78813 26.1888,-8.28648 39.598,-11.31371 21.3133,-4.81167 43.4836,-0.65532 65.0538,2.82843 41.1363,6.64382 83.1006,10.80467 124.4508,5.65685 8.4754,-1.05513 16.9213,-2.50064 25.4558,-2.82842 19.0826,-0.73289 37.8757,4.12444 56.4677,8.48543 18.5921,4.36099 37.7538,8.28045 56.6694,5.6567 5.7123,-0.79234 11.3425,-2.17681 17.0885,-2.66879 5.7459,-0.49197 11.7551,-0.028 16.8527,2.66879 3.3221,1.7575 6.1518,4.43436 8.0909,7.65388 1.9391,3.21952 2.982,6.97254 2.982,10.7309 0,3.75836 -1.0429,7.51138 -2.982,10.7309 -1.9391,3.21952 -4.7688,5.89638 -8.0909,7.65388 L 7.8284201,616.31569 6.6568501,545.60501"
       id="path5866"
       inkscape:path-effect="#path-effect5868"
       inkscape:original-d="M 6.6568501,545.60501 C 54.32684,554.51338 100.92712,527.2785 147.42136,542.77658 c 26.80938,8.93646 9.02542,19.79899 53.74011,19.79899 5.59362,0 17.26642,1.787 22.62742,0 47.68223,-15.89407 101.17344,-16.97056 155.56349,-16.97056 10.35733,0 19.54441,2.70114 25.45585,5.65685 13.67307,6.83654 50.5656,0 65.05382,0 11.37487,0 39.17189,-8.69832 50.91169,-2.82842 0.055,0.0275 5.60183,8.45777 5.65685,8.48528 10.60689,5.30344 36.19117,0 48.08326,0 8.21341,0 29.39422,3.68767 36.76956,0 7.25574,-3.62788 14.17474,-15.09581 19.79899,-16.97056 9.83055,-3.27685 90.43783,-4.73799 104.6518,0 16.46314,5.48771 32.94082,14.75151 48.08326,19.79899 10.91816,3.63938 64.09195,6.13779 76.36753,0 10.95063,-5.47532 43.29571,-12.29327 56.56851,-5.65686 23.9062,11.9531 20.9487,14.14214 53.7402,14.14214 103.5046,0 205.0486,-2.82843 305.4701,-2.82843 22.1595,0 114.3142,-6.48247 127.2792,0 9.3973,4.69868 23.7624,13.57766 33.9411,16.97056 16.3654,5.45515 60.9849,4.55278 79.196,0 9.6612,-2.41531 18.6981,-9.39648 28.2842,-11.31371 24.631,-4.9262 46.2016,5.89207 70.7107,2.82843 13.6669,-1.70836 26.4405,-8.68221 39.598,-11.31371 22.0437,-4.40873 43.7656,2.82843 65.0538,2.82843 39.3435,0 88.2396,-6.41354 124.4508,5.65685 10.3263,3.44212 16.2204,-7.44614 25.4558,-2.82842 30.2111,15.10554 84.6989,14.14213 113.1371,14.14213 10.4432,0 33.0489,-1.33832 33.9412,0 2.4918,3.73776 1.8744,31.14612 0,36.76956 11.2863,15.15636 -1467.00643,177.85277 -2009.1832799,-2.82843 -13.83789,-21.97752 3.7490299,-46.94096 -1.17157,-70.71068 z"
       inkscape:connector-curvature="0"
       sodipodi:nodetypes="cssssssssssssssssssssssssssscccc"
       inkscape:export-filename="/Users/tlodge/block49.website/assets/img/top_line2.png"
       inkscape:export-xdpi="90"
       inkscape:export-ydpi="90" />
    <path
       style="fill:none;stroke:#000000;stroke-width:1px;stroke-linecap:butt;stroke-linejoin:miter;stroke-opacity:1"
       d="m 581,247.09448 1,27.36396"
       id="path6019"
       inkscape:connector-curvature="0"
       inkscape:export-filename="/Users/tlodge/block49.website/assets/img/top_line2.png"
       inkscape:export-xdpi="90"
       inkscape:export-ydpi="90"
       sodipodi:nodetypes="cc" />
    <path
       style="fill:none;stroke:#000000;stroke-width:1px;stroke-linecap:butt;stroke-linejoin:miter;stroke-opacity:1"
       d="m 801,252.09448 1.29289,27.53553"
       id="path6021"
       inkscape:connector-curvature="0"
       inkscape:export-filename="/Users/tlodge/block49.website/assets/img/top_line2.png"
       inkscape:export-xdpi="90"
       inkscape:export-ydpi="90"
       sodipodi:nodetypes="cc" />
    <path
       style="fill:none;stroke:#000000;stroke-width:1px;stroke-linecap:butt;stroke-linejoin:miter;stroke-opacity:1"
       d="m 117,237.09448 0,29.09188"
       id="path6053"
       inkscape:connector-curvature="0"
       inkscape:export-filename="/Users/tlodge/block49.website/assets/img/top_line2.png"
       inkscape:export-xdpi="90"
       inkscape:export-ydpi="90"
       sodipodi:nodetypes="cc" />
    <path
       style="fill:none;stroke:#000000;stroke-width:1px;stroke-linecap:butt;stroke-linejoin:miter;stroke-opacity:1"
       d="m 258,240.09448 1,27"
       id="path6057"
       inkscape:connector-curvature="0"
       inkscape:export-filename="/Users/tlodge/block49.website/assets/img/top_line2.png"
       inkscape:export-xdpi="90"
       inkscape:export-ydpi="90" />
    <path
       style="fill:none;stroke:#000000;stroke-width:1px;stroke-linecap:butt;stroke-linejoin:miter;stroke-opacity:1"
       d="m 417,244.09448 1,29.36396"
       id="path6059"
       inkscape:connector-curvature="0"
       inkscape:export-filename="/Users/tlodge/block49.website/assets/img/top_line2.png"
       inkscape:export-xdpi="90"
       inkscape:export-ydpi="90"
       sodipodi:nodetypes="cc" />
    <path
       style="fill:none;stroke:#000000;stroke-width:1px;stroke-linecap:butt;stroke-linejoin:miter;stroke-opacity:1"
       d="m 0,504.09448 2004,-82"
       id="path6123"
       inkscape:connector-curvature="0"
       inkscape:export-filename="/Users/tlodge/block49.website/assets/img/bottom_line2.png"
       inkscape:export-xdpi="90"
       inkscape:export-ydpi="90" />
    <path
       style="fill:none;stroke:#000000;stroke-width:1px;stroke-linecap:butt;stroke-linejoin:miter;stroke-opacity:1"
       d="m 289,474.09448 0.29289,18.70711"
       id="path6127"
       inkscape:connector-curvature="0"
       inkscape:export-filename="/Users/tlodge/block49.website/assets/img/bottom_line2.png"
       inkscape:export-xdpi="90"
       inkscape:export-ydpi="90"
       sodipodi:nodetypes="cc" />
    <path
       style="fill:none;stroke:#000000;stroke-width:1px;stroke-linecap:butt;stroke-linejoin:miter;stroke-opacity:1"
       d="m 401,453.09448 3,34"
       id="path6129"
       inkscape:connector-curvature="0"
       inkscape:export-filename="/Users/tlodge/block49.website/assets/img/bottom_line2.png"
       inkscape:export-xdpi="90"
       inkscape:export-ydpi="90" />
    <path
       style="fill:none;stroke:#000000;stroke-width:1px;stroke-linecap:butt;stroke-linejoin:miter;stroke-opacity:1"
       d="m 582,458.09448 2,22"
       id="path6131"
       inkscape:connector-curvature="0"
       inkscape:export-filename="/Users/tlodge/block49.website/assets/img/bottom_line2.png"
       inkscape:export-xdpi="90"
       inkscape:export-ydpi="90" />
    <path
       style="fill:none;stroke:#000000;stroke-width:1px;stroke-linecap:butt;stroke-linejoin:miter;stroke-opacity:1"
       d="M 733.82843,435.68027 735,473.09448"
       id="path6133"
       inkscape:connector-curvature="0"
       inkscape:export-filename="/Users/tlodge/block49.website/assets/img/bottom_line2.png"
       inkscape:export-xdpi="90"
       inkscape:export-ydpi="90"
       sodipodi:nodetypes="cc" />
    <path
       style="fill:none;stroke:#000000;stroke-width:1px;stroke-linecap:butt;stroke-linejoin:miter;stroke-opacity:1"
       d="M 939.82843,401.05285 941,465.09448"
       id="path6135"
       inkscape:connector-curvature="0"
       inkscape:export-filename="/Users/tlodge/block49.website/assets/img/bottom_line2.png"
       inkscape:export-xdpi="90"
       inkscape:export-ydpi="90"
       sodipodi:nodetypes="cc" />
    <path
       style="fill:none;stroke:#000000;stroke-width:1px;stroke-linecap:butt;stroke-linejoin:miter;stroke-opacity:1"
       d="M 1140.4142,415.07366 1142,456.09448"
       id="path6137"
       inkscape:connector-curvature="0"
       inkscape:export-filename="/Users/tlodge/block49.website/assets/img/bottom_line2.png"
       inkscape:export-xdpi="90"
       inkscape:export-ydpi="90"
       sodipodi:nodetypes="cc" />
    <path
       style="fill:none;stroke:#000000;stroke-width:1px;stroke-linecap:butt;stroke-linejoin:miter;stroke-opacity:1"
       d="M 1322.1213,408.0026 1322,449.09448"
       id="path6139"
       inkscape:connector-curvature="0"
       inkscape:export-filename="/Users/tlodge/block49.website/assets/img/bottom_line2.png"
       inkscape:export-xdpi="90"
       inkscape:export-ydpi="90"
       sodipodi:nodetypes="cc" />
    <path
       style="fill:none;stroke:#000000;stroke-width:1px;stroke-linecap:butt;stroke-linejoin:miter;stroke-opacity:1"
       d="m 1435.1213,407.53813 0.8787,37.55635 0,0 0,-1"
       id="path6141"
       inkscape:connector-curvature="0"
       inkscape:export-filename="/Users/tlodge/block49.website/assets/img/bottom_line2.png"
       inkscape:export-xdpi="90"
       inkscape:export-ydpi="90"
       sodipodi:nodetypes="cccc" />
    <path
       style="fill:none;stroke:#000000;stroke-width:1px;stroke-linecap:butt;stroke-linejoin:miter;stroke-opacity:1"
       d="M 1588.8284,402.78077 1589,439.09448"
       id="path6145"
       inkscape:connector-curvature="0"
       inkscape:export-filename="/Users/tlodge/block49.website/assets/img/bottom_line2.png"
       inkscape:export-xdpi="90"
       inkscape:export-ydpi="90"
       sodipodi:nodetypes="cc" />
    <path
       style="fill:none;stroke:#000000;stroke-width:1px;stroke-linecap:butt;stroke-linejoin:miter;stroke-opacity:1"
       d="M 1762.8284,405.48788 1763,431.09448"
       id="path6147"
       inkscape:connector-curvature="0"
       inkscape:export-filename="/Users/tlodge/block49.website/assets/img/bottom_line2.png"
       inkscape:export-xdpi="90"
       inkscape:export-ydpi="90"
       sodipodi:nodetypes="cc" />
    <path
       style="fill:none;stroke:#000000;stroke-width:1px;stroke-linecap:butt;stroke-linejoin:miter;stroke-opacity:1"
       d="M 1950.4142,393.85184 1952,424.09448"
       id="path6149"
       inkscape:connector-curvature="0"
       inkscape:export-filename="/Users/tlodge/block49.website/assets/img/bottom_line2.png"
       inkscape:export-xdpi="90"
       inkscape:export-ydpi="90"
       sodipodi:nodetypes="cc" />
    <path
       style="fill:#f4f5f6;fill-opacity:1;stroke:#000000;stroke-width:1px;stroke-linecap:butt;stroke-linejoin:miter;stroke-opacity:1"
       d="m -4,468.09448 0,0 c 9.8453687,13.06646 24.113676,22.73731 39.897629,27.04203 15.783953,4.30471 32.986464,3.21681 48.102371,-3.04203 12.524168,-5.18572 23.35038,-13.65154 34.67467,-21.10184 11.32428,-7.4503 23.793,-14.1092 37.32533,-14.89816 8.32688,-0.48547 16.63502,1.29166 24.59639,3.77946 7.96137,2.4878 15.68513,5.6903 23.64625,8.17891 34.72956,10.85633 72.25929,7.66318 108.08396,1.29177 35.82468,-6.37141 71.31424,-15.83112 107.6734,-17.25014 42.75813,-1.66876 85.21348,7.84679 128,8.44365 69.88848,0.97493 138.15492,-21.79506 208,-24.44365 6.66396,-0.2527 13.33901,-0.32151 20,0 28.11503,1.35704 56.42064,9.6281 84,4 13.64792,-2.78512 26.42487,-8.87937 40,-12 17.63075,-4.05293 36.02248,-2.96624 53.99407,-0.89461 17.97159,2.07162 35.91662,5.11025 54.00593,4.89461 25.4887,-0.30384 50.5269,-7.06033 76,-8 32.2379,-1.18921 64.0567,6.94832 96.2426,9.12994 41.2242,2.79425 82.449,-4.2045 123.7574,-5.12994 25.3305,-0.56748 50.6893,1.15049 76,0 26.2594,-1.19361 52.2676,-5.46452 78.3848,-8.44365 53.6067,-6.11481 107.6664,-6.78581 161.6152,-7.55635 29.3329,-0.41895 58.677,-0.86923 88,0 21.3694,0.63346 42.718,1.96775 64,4 l 228,-20.68629 -0.4437,-4.24264 L -2.3431458,395.32492 -4,468.09448"
       id="path5800"
       inkscape:path-effect="#path-effect5802"
       inkscape:original-d="m -4,468.09448 0,0 c 17.971711,17.97171 61.150015,30.7125 88,24 29.41917,-7.35479 32.80269,-55.59865 72,-36 12.62636,6.31318 35.37111,9.38407 48.24264,11.95837 30.48645,6.09729 189.54276,-2.85107 215.75736,-15.95837 45.95062,-22.97531 87.03371,15.27137 128,8.44365 37.41101,-6.23517 194.01964,-10.46329 208,-24.44365 1.98347,-1.98347 17.19008,0 20,0 25.91926,0 60.28544,11.90486 84,4 14.45792,-4.81931 24.87046,-9.47841 40,-12 36.85812,-6.14302 72.90649,9.01336 108,4 21.1328,-3.01898 53.3268,-15.55772 76,-8 22.5894,7.52981 64.6412,15.45023 96.2426,9.12994 43.8137,-8.76274 83.1947,11.09514 123.7574,-5.12994 21.2852,-8.51409 55.6035,10.19827 76,0 18.2369,-9.11844 57.1284,-3.12954 78.3848,-8.44365 30.394,-7.59849 135.9535,-20.38719 161.6152,-7.55635 23.4667,11.73334 64.5333,-11.73333 88,0 18.474,9.23702 42.9669,0.49449 64,4 53.2378,-40.85886 215.5629,17.50621 228,-20.68629 41.0122,-47.75974 11.9607,-28.28427 -0.4437,-4.24264 C 1318.785,530.45884 587.75312,276.16511 -2.3431458,395.32492 -10.327376,403.30915 -8.4339762,457.00954 -4,468.09448 z"
       inkscape:connector-curvature="0"
       sodipodi:nodetypes="ccsssssssssssssssssccccc"
       inkscape:export-filename="/Users/tlodge/block49.website/assets/img/bottom_line2.png"
       inkscape:export-xdpi="90"
       inkscape:export-ydpi="90" />
    <path
       style="fill:none;stroke:#000000;stroke-width:1px;stroke-linecap:butt;stroke-linejoin:miter;stroke-opacity:1"
       d="m 159.80613,455.59492 -0.7071,41.7193"
       id="path6153"
       inkscape:connector-curvature="0"
       sodipodi:nodetypes="cc"
       inkscape:export-filename="/Users/tlodge/block49.website/assets/img/bottom_line2.png"
       inkscape:export-xdpi="90"
       inkscape:export-ydpi="90" />
    <path
       style="fill:none;stroke:#000000;stroke-width:1px;stroke-linecap:butt;stroke-linejoin:miter;stroke-opacity:1"
       d="m 57.275649,264.67608 -0.707106,40.30509 0,0"
       id="path6221"
       inkscape:connector-curvature="0"
       inkscape:export-filename="/Users/tlodge/block49.website/assets/img/top_line2.png"
       inkscape:export-xdpi="90"
       inkscape:export-ydpi="90" />
    <path
       style="fill:none;stroke:#000000;stroke-width:1px;stroke-linecap:butt;stroke-linejoin:miter;stroke-opacity:1"
       d="m 173.24116,266.7974 0,38.18377 0.70711,0"
       id="path6223"
       inkscape:connector-curvature="0"
       inkscape:export-filename="/Users/tlodge/block49.website/assets/img/top_line2.png"
       inkscape:export-xdpi="90"
       inkscape:export-ydpi="90" />
    <path
       style="fill:none;stroke:#000000;stroke-width:1px;stroke-linecap:butt;stroke-linejoin:miter;stroke-opacity:1"
       d="m 324.56201,270.33294 0,32.52691"
       id="path6227"
       inkscape:connector-curvature="0"
       inkscape:export-filename="/Users/tlodge/block49.website/assets/img/top_line2.png"
       inkscape:export-xdpi="90"
       inkscape:export-ydpi="90" />
    <path
       style="fill:none;stroke:#000000;stroke-width:1px;stroke-linecap:butt;stroke-linejoin:miter;stroke-opacity:1"
       d="m 501.33871,273.86847 0.7071,37.47666"
       id="path6229"
       inkscape:connector-curvature="0"
       inkscape:export-filename="/Users/tlodge/block49.website/assets/img/top_line2.png"
       inkscape:export-xdpi="90"
       inkscape:export-ydpi="90" />
    <path
       style="fill:none;stroke:#000000;stroke-width:1px;stroke-linecap:butt;stroke-linejoin:miter;stroke-opacity:1"
       d="m 642.05296,277.40401 0,26.87005"
       id="path6231"
       inkscape:connector-curvature="0"
       inkscape:export-filename="/Users/tlodge/block49.website/assets/img/top_line2.png"
       inkscape:export-xdpi="90"
       inkscape:export-ydpi="90" />
    <path
       style="fill:none;stroke:#000000;stroke-width:1px;stroke-linecap:butt;stroke-linejoin:miter;stroke-opacity:1"
       d="m 738.92659,278.81822 0,32.52691"
       id="path6233"
       inkscape:connector-curvature="0"
       inkscape:export-filename="/Users/tlodge/block49.website/assets/img/top_line2.png"
       inkscape:export-xdpi="90"
       inkscape:export-ydpi="90" />
    <path
       style="fill:none;stroke:#000000;stroke-width:1px;stroke-linecap:butt;stroke-linejoin:miter;stroke-opacity:1"
       d="m 876.81241,281.64665 0.70711,26.87006"
       id="path6235"
       inkscape:connector-curvature="0"
       inkscape:export-filename="/Users/tlodge/block49.website/assets/img/top_line2.png"
       inkscape:export-xdpi="90"
       inkscape:export-ydpi="90" />
    <path
       style="fill:none;stroke:#000000;stroke-width:1px;stroke-linecap:butt;stroke-linejoin:miter;stroke-opacity:1"
       d="m 980.75711,283.76797 0,31.8198"
       id="path6237"
       inkscape:connector-curvature="0"
       inkscape:export-filename="/Users/tlodge/block49.website/assets/img/top_line2.png"
       inkscape:export-xdpi="90"
       inkscape:export-ydpi="90" />
    <path
       style="fill:none;stroke:#000000;stroke-width:1px;stroke-linecap:butt;stroke-linejoin:miter;stroke-opacity:1"
       d="m 926.30988,254.77659 0,28.28427"
       id="path6239"
       inkscape:connector-curvature="0"
       inkscape:export-filename="/Users/tlodge/block49.website/assets/img/top_line2.png"
       inkscape:export-xdpi="90"
       inkscape:export-ydpi="90" />
    <path
       style="fill:none;stroke:#000000;stroke-width:1px;stroke-linecap:butt;stroke-linejoin:miter;stroke-opacity:1"
       d="m 1062.0744,258.31212 0.7071,26.87006"
       id="path6241"
       inkscape:connector-curvature="0"
       inkscape:export-filename="/Users/tlodge/block49.website/assets/img/top_line2.png"
       inkscape:export-xdpi="90"
       inkscape:export-ydpi="90" />
    <path
       style="fill:none;stroke:#000000;stroke-width:1px;stroke-linecap:butt;stroke-linejoin:miter;stroke-opacity:1"
       d="m 1096.0155,288.01061 0,21.2132"
       id="path6243"
       inkscape:connector-curvature="0"
       inkscape:export-filename="/Users/tlodge/block49.website/assets/img/top_line2.png"
       inkscape:export-xdpi="90"
       inkscape:export-ydpi="90" />
    <path
       style="fill:none;stroke:#000000;stroke-width:1px;stroke-linecap:butt;stroke-linejoin:miter;stroke-opacity:1"
       d="m 1185.8181,259.01923 0.7071,29.69849"
       id="path6245"
       inkscape:connector-curvature="0"
       inkscape:export-filename="/Users/tlodge/block49.website/assets/img/top_line2.png"
       inkscape:export-xdpi="90"
       inkscape:export-ydpi="90" />
    <path
       style="fill:none;stroke:#000000;stroke-width:1px;stroke-linecap:butt;stroke-linejoin:miter;stroke-opacity:1"
       d="m 1246.6293,290.13193 0.7071,22.62742"
       id="path6247"
       inkscape:connector-curvature="0"
       inkscape:export-filename="/Users/tlodge/block49.website/assets/img/top_line2.png"
       inkscape:export-xdpi="90"
       inkscape:export-ydpi="90" />
    <path
       style="fill:none;stroke:#000000;stroke-width:1px;stroke-linecap:butt;stroke-linejoin:miter;stroke-opacity:1"
       d="m 1303.1978,265.38319 0,25.45585"
       id="path6249"
       inkscape:connector-curvature="0"
       inkscape:export-filename="/Users/tlodge/block49.website/assets/img/top_line2.png"
       inkscape:export-xdpi="90"
       inkscape:export-ydpi="90" />
    <path
       style="fill:none;stroke:#000000;stroke-width:1px;stroke-linecap:butt;stroke-linejoin:miter;stroke-opacity:1"
       d="m 1412.0922,265.38319 1.4143,27.57717"
       id="path6251"
       inkscape:connector-curvature="0"
       inkscape:export-filename="/Users/tlodge/block49.website/assets/img/top_line2.png"
       inkscape:export-xdpi="90"
       inkscape:export-ydpi="90" />
    <path
       style="fill:none;stroke:#000000;stroke-width:1px;stroke-linecap:butt;stroke-linejoin:miter;stroke-opacity:1"
       d="m 1365.4232,291.54614 0,25.45585"
       id="path6253"
       inkscape:connector-curvature="0"
       inkscape:export-filename="/Users/tlodge/block49.website/assets/img/top_line2.png"
       inkscape:export-xdpi="90"
       inkscape:export-ydpi="90" />
    <path
       style="fill:none;stroke:#000000;stroke-width:1px;stroke-linecap:butt;stroke-linejoin:miter;stroke-opacity:1"
       d="m 1504.7232,295.78878 -0.7071,20.5061"
       id="path6255"
       inkscape:connector-curvature="0"
       inkscape:export-filename="/Users/tlodge/block49.website/assets/img/top_line2.png"
       inkscape:export-xdpi="90"
       inkscape:export-ydpi="90" />
    <path
       style="fill:none;stroke:#000000;stroke-width:1px;stroke-linecap:butt;stroke-linejoin:miter;stroke-opacity:1"
       d="m 1552.8065,268.91873 0.7071,27.57716"
       id="path6265"
       inkscape:connector-curvature="0"
       inkscape:export-filename="/Users/tlodge/block49.website/assets/img/top_line2.png"
       inkscape:export-xdpi="90"
       inkscape:export-ydpi="90" />
    <path
       style="fill:none;stroke:#000000;stroke-width:1px;stroke-linecap:butt;stroke-linejoin:miter;stroke-opacity:1"
       d="m 1648.973,271.74715 0,26.16295"
       id="path6267"
       inkscape:connector-curvature="0"
       inkscape:export-filename="/Users/tlodge/block49.website/assets/img/top_line2.png"
       inkscape:export-xdpi="90"
       inkscape:export-ydpi="90" />
    <path
       style="fill:none;stroke:#000000;stroke-width:1px;stroke-linecap:butt;stroke-linejoin:miter;stroke-opacity:1"
       d="m 1787.5659,273.16137 0,27.57716"
       id="path6269"
       inkscape:connector-curvature="0"
       inkscape:export-filename="/Users/tlodge/block49.website/assets/img/top_line2.png"
       inkscape:export-xdpi="90"
       inkscape:export-ydpi="90" />
    <path
       style="fill:none;stroke:#000000;stroke-width:1px;stroke-linecap:butt;stroke-linejoin:miter;stroke-opacity:1"
       d="m 1912.7238,277.40401 0,26.16295"
       id="path6271"
       inkscape:connector-curvature="0"
       inkscape:export-filename="/Users/tlodge/block49.website/assets/img/top_line2.png"
       inkscape:export-xdpi="90"
       inkscape:export-ydpi="90" />
    <path
       style="fill:none;stroke:#000000;stroke-width:1px;stroke-linecap:butt;stroke-linejoin:miter;stroke-opacity:1"
       d="m 1597.3542,297.9101 0,10.60661"
       id="path6273"
       inkscape:connector-curvature="0"
       inkscape:export-filename="/Users/tlodge/block49.website/assets/img/top_line2.png"
       inkscape:export-xdpi="90"
       inkscape:export-ydpi="90" />
    <path
       style="fill:none;stroke:#000000;stroke-width:1px;stroke-linecap:butt;stroke-linejoin:miter;stroke-opacity:1"
       d="m 1712.6126,300.73853 0,17.67767"
       id="path6275"
       inkscape:connector-curvature="0"
       inkscape:export-filename="/Users/tlodge/block49.website/assets/img/top_line2.png"
       inkscape:export-xdpi="90"
       inkscape:export-ydpi="90" />
    <path
       style="fill:none;stroke:#000000;stroke-width:1px;stroke-linecap:butt;stroke-linejoin:miter;stroke-opacity:1"
       d="m 1857.5695,303.56696 0,18.38477"
       id="path6277"
       inkscape:connector-curvature="0"
       inkscape:export-filename="/Users/tlodge/block49.website/assets/img/top_line2.png"
       inkscape:export-xdpi="90"
       inkscape:export-ydpi="90" />
    <path
       style="fill:none;stroke:#000000;stroke-width:1px;stroke-linecap:butt;stroke-linejoin:miter;stroke-opacity:1"
       d="m 1955.1503,304.98117 0,16.97056"
       id="path6279"
       inkscape:connector-curvature="0"
       inkscape:export-filename="/Users/tlodge/block49.website/assets/img/top_line2.png"
       inkscape:export-xdpi="90"
       inkscape:export-ydpi="90" />
    <path
       style="fill:#f4f5f6;fill-opacity:1;stroke:#000000;stroke-width:1px;stroke-linecap:butt;stroke-linejoin:miter;stroke-opacity:1"
       d="m 2.1213206,384.17713 0.7071068,-52.3259 2000.4050726,36.76955 0.7071,16.97056"
       id="path6219"
       inkscape:connector-curvature="0"
       sodipodi:nodetypes="cccc"
       inkscape:export-filename="/Users/tlodge/block49.website/assets/img/top_line2.png"
       inkscape:export-xdpi="90"
       inkscape:export-ydpi="90" />
    <path
       style="fill:#f4f5f6;fill-opacity:1;stroke:#000000;stroke-width:1px;stroke-linecap:butt;stroke-linejoin:miter;stroke-opacity:1"
       d="M 5.6568542,732.78078 2011.0117,653.58482 l 0,-16.97056 L 2.2507635e-8,642.27111 z"
       id="path6345"
       inkscape:connector-curvature="0"
       inkscape:export-filename="/Users/tlodge/block49.website/assets/img/bottom_line2.png"
       inkscape:export-xdpi="90"
       inkscape:export-ydpi="90" />
  </g>
  <g
     inkscape:groupmode="layer"
     id="layer5"
     inkscape:label="Layer#1"
     style="display:none"
     transform="translate(0,2.421875e-6)">
    <path
       style="fill:#f4f5f6;fill-opacity:1;stroke:#000000;stroke-width:2.00399995;stroke-linecap:butt;stroke-linejoin:miter;stroke-miterlimit:4;stroke-opacity:1;stroke-dasharray:none;display:inline"
       d="m 2.303307,321.43764 61.037636,2.30331 c 23.79135,-7.60039 26.665939,-7.11492 49.521097,-2.30331 l 23.03307,1.15166 -0.81434,-34.68333 c -16.39766,5.64671 -34.08463,-23.07614 -53.31337,-34.41588 -25.879785,3.87384 -50.588674,7.88237 -79.464093,-9.21323"
       id="path5533"
       inkscape:connector-curvature="0"
       sodipodi:nodetypes="ccccccc"
       inkscape:export-filename="/Users/tlodge/block49.website/assets/img/top_line2.png"
       inkscape:export-xdpi="90"
       inkscape:export-ydpi="90" />
    <path
       style="fill:#f4f5f6;fill-opacity:1;stroke:#000000;stroke-width:2.00399995;stroke-linecap:butt;stroke-linejoin:miter;stroke-miterlimit:4;stroke-opacity:1;stroke-dasharray:none;display:inline"
       d="m 134.74346,288.03969 1.15165,34.54961 96.7389,-9.21323 54.12771,2.30331 110.55874,1.15165 6.90992,-42.61118 -224.57243,-10.36488 c -19.87526,16.8563 -24.68849,23.06855 -44.91449,24.18472 z"
       id="path5537"
       inkscape:connector-curvature="0"
       sodipodi:nodetypes="cccccccc"
       inkscape:export-filename="/Users/tlodge/block49.website/assets/img/top_line2.png"
       inkscape:export-xdpi="90"
       inkscape:export-ydpi="90" />
    <path
       style="fill:#f4f5f6;fill-opacity:1;stroke:#000000;stroke-width:2.00399995;stroke-linecap:butt;stroke-linejoin:miter;stroke-miterlimit:4;stroke-opacity:1;stroke-dasharray:none;display:inline"
       d="m 401.38204,273.97812 c -9.46022,9.06571 -3.45496,39.15622 -3.45496,39.15622 l 127.83354,4.60661 0,-39.15622 -14.9715,-3.45496 c -31.92793,-7.36798 -52.6354,-3.7322 -84.07071,-2.30331 0,0 -16.17866,2.0206 -25.33637,1.15166 z"
       id="path5539"
       inkscape:connector-curvature="0"
       sodipodi:nodetypes="ccccscc"
       inkscape:export-filename="/Users/tlodge/block49.website/assets/img/top_line2.png"
       inkscape:export-xdpi="90"
       inkscape:export-ydpi="90" />
    <path
       style="fill:#f4f5f6;fill-opacity:1;stroke:#000000;stroke-width:2.00399995;stroke-linecap:butt;stroke-linejoin:miter;stroke-miterlimit:4;stroke-opacity:1;stroke-dasharray:none;display:inline"
       d="m 526.30566,278.82647 -1.15165,38.00456 50.67275,5.75827 70.25087,3.45496 3.45496,-54.12772 -35.70126,-3.45496 c -18.63255,-1.80315 -9.84743,15.69899 -39.15622,23.03308 -16.61484,4.15761 -31.66279,-10.0303 -48.36945,-12.66819 z"
       id="path5541"
       inkscape:connector-curvature="0"
       sodipodi:nodetypes="cccccssc"
       inkscape:export-filename="/Users/tlodge/block49.website/assets/img/top_line2.png"
       inkscape:export-xdpi="90"
       inkscape:export-ydpi="90" />
    <path
       style="fill:#f4f5f6;fill-opacity:1;stroke:#000000;stroke-width:2.00399995;stroke-linecap:butt;stroke-linejoin:miter;stroke-miterlimit:4;stroke-opacity:1;stroke-dasharray:none;display:inline"
       d="m 648.38093,271.91655 -3.45496,55.27937 126.68188,-2.30331 1.15165,-51.82441 z"
       id="path5543"
       inkscape:connector-curvature="0"
       sodipodi:nodetypes="ccccc"
       inkscape:export-filename="/Users/tlodge/block49.website/assets/img/top_line2.png"
       inkscape:export-xdpi="90"
       inkscape:export-ydpi="90" />
    <path
       style="fill:#f4f5f6;fill-opacity:1;stroke:#000000;stroke-width:2.00399995;stroke-linecap:butt;stroke-linejoin:miter;stroke-miterlimit:4;stroke-opacity:1;stroke-dasharray:none;display:inline"
       d="m 772.7595,273.06821 -1.15165,50.67274 128.9852,1.15166 2.3033,-54.12772 z"
       id="path5545"
       inkscape:connector-curvature="0"
       sodipodi:nodetypes="ccccc"
       inkscape:export-filename="/Users/tlodge/block49.website/assets/img/top_line2.png"
       inkscape:export-xdpi="90"
       inkscape:export-ydpi="90" />
    <path
       sodipodi:nodetypes="ccccccsc"
       inkscape:connector-curvature="0"
       id="path5595"
       d="m 901.7447,270.76489 0,54.12771 61.03764,2.30331 c 23.79135,-7.60039 26.66594,-7.11492 49.52106,-2.30331 l 23.0331,1.15166 -0.8144,-34.68333 c -16.3977,5.64671 -20.1802,-22.50557 -42.20394,-26.15072 -25.81688,-4.27295 -50.1815,7.67878 -90.57346,5.55468 z"
       style="fill:#f4f5f6;fill-opacity:1;stroke:#000000;stroke-width:2.00399995;stroke-linecap:butt;stroke-linejoin:miter;stroke-miterlimit:4;stroke-opacity:1;stroke-dasharray:none;display:inline"
       inkscape:export-filename="/Users/tlodge/block49.website/assets/img/top_line2.png"
       inkscape:export-xdpi="90"
       inkscape:export-ydpi="90" />
    <path
       sodipodi:nodetypes="ccccccsc"
       inkscape:connector-curvature="0"
       id="path5597"
       d="m 1035.5165,291.17075 -0.18,34.87351 96.7389,-9.21323 54.1277,2.30331 110.5588,1.15165 -0.252,-48.69335 -218.8142,-4.60661 c -17.8689,-0.37619 -21.9532,23.06855 -42.1792,24.18472 z"
       style="fill:#f4f5f6;fill-opacity:1;stroke:#000000;stroke-width:2.00399995;stroke-linecap:butt;stroke-linejoin:miter;stroke-miterlimit:4;stroke-opacity:1;stroke-dasharray:none;display:inline"
       inkscape:export-filename="/Users/tlodge/block49.website/assets/img/top_line2.png"
       inkscape:export-xdpi="90"
       inkscape:export-ydpi="90" />
    <path
       sodipodi:nodetypes="ccccssc"
       inkscape:connector-curvature="0"
       id="path5599"
       d="m 1297.3684,271.67481 10e-5,44.91449 127.8335,4.60661 -0.3958,-46.89389 -14.5757,4.28271 c -35.3031,10.37297 -71.6763,-0.32021 -84.0707,-2.30331 z"
       style="fill:#f4f5f6;fill-opacity:1;stroke:#000000;stroke-width:2.00399995;stroke-linecap:butt;stroke-linejoin:miter;stroke-miterlimit:4;stroke-opacity:1;stroke-dasharray:none;display:inline"
       inkscape:export-filename="/Users/tlodge/block49.website/assets/img/top_line2.png"
       inkscape:export-xdpi="90"
       inkscape:export-ydpi="90" />
    <path
       sodipodi:nodetypes="cccccssc"
       inkscape:connector-curvature="0"
       id="path5601"
       d="m 1425.7471,274.21986 -1.1517,46.06613 50.6728,5.75827 70.2508,3.45496 3.455,-54.12772 -35.7013,-3.45496 c -13.1835,-1.27582 -9.8474,5.33411 -39.1562,12.6682 -16.6148,4.15761 -31.6628,-7.72699 -48.3694,-10.36488 z"
       style="fill:#f4f5f6;fill-opacity:1;stroke:#000000;stroke-width:2.00399995;stroke-linecap:butt;stroke-linejoin:miter;stroke-miterlimit:4;stroke-opacity:1;stroke-dasharray:none;display:inline"
       inkscape:export-filename="/Users/tlodge/block49.website/assets/img/top_line2.png"
       inkscape:export-xdpi="90"
       inkscape:export-ydpi="90" />
    <path
       sodipodi:nodetypes="ccccc"
       inkscape:connector-curvature="0"
       id="path5603"
       d="m 1547.8223,275.37151 -3.4549,55.27937 126.6818,-2.30331 0,-49.5211 z"
       style="fill:#f4f5f6;fill-opacity:1;stroke:#000000;stroke-width:2.00399995;stroke-linecap:butt;stroke-linejoin:miter;stroke-miterlimit:4;stroke-opacity:1;stroke-dasharray:none;display:inline"
       inkscape:export-filename="/Users/tlodge/block49.website/assets/img/top_line2.png"
       inkscape:export-xdpi="90"
       inkscape:export-ydpi="90" />
    <path
       sodipodi:nodetypes="ccccc"
       inkscape:connector-curvature="0"
       id="path5605"
       d="m 1671.4091,278.82647 1.9435,50.67275 126.6818,-1.15165 1.0437,-36.09715 c -0.9477,-3.34699 -4.8664,-4.87101 -129.669,-13.42395 z"
       style="fill:#f4f5f6;fill-opacity:1;stroke:#000000;stroke-width:2.00399995;stroke-linecap:butt;stroke-linejoin:miter;stroke-miterlimit:4;stroke-opacity:1;stroke-dasharray:none;display:inline"
       inkscape:export-filename="/Users/tlodge/block49.website/assets/img/top_line2.png"
       inkscape:export-xdpi="90"
       inkscape:export-ydpi="90" />
    <path
       style="fill:#f4f5f6;fill-opacity:1;stroke:#000000;stroke-width:2.00399995;stroke-linecap:butt;stroke-linejoin:miter;stroke-miterlimit:4;stroke-opacity:1;stroke-dasharray:none;display:inline"
       d="m 2000.5698,265.44997 c -68.5524,8.14709 -146.9736,23.92272 -199.5643,26.28884 l -0.8322,34.47194 c 50.1944,6.21725 102.4849,4.04738 152.9561,6.6334 l 41.5637,-0.57308"
       id="path5607"
       inkscape:connector-curvature="0"
       sodipodi:nodetypes="ccccc"
       inkscape:export-filename="/Users/tlodge/block49.website/assets/img/top_line2.png"
       inkscape:export-xdpi="90"
       inkscape:export-ydpi="90" />
  </g>
  <g
     inkscape:groupmode="layer"
     id="layer4"
     inkscape:label="Layer"
     style="display:none"
     transform="translate(0,2.421875e-6)" />
</svg>
